HIERARCHY
ROOT mixamorig:Hips
{
	OFFSET 0.000000 104.274902 0.000000
	CHANNELS 6 Xposition Yposition Zposition Xrotation Yrotation Zrotation
	JOINT mixamorig:Spine
	{
		OFFSET 0.000000 10.181549 0.131524
		CHANNELS 6 Xposition Yposition Zposition Xrotation Yrotation Zrotation
		JOINT mixamorig:Spine1
		{
			OFFSET 0.000000 9.893990 -1.470706
			CHANNELS 3 Xrotation Yrotation Zrotation
			JOINT mixamorig:Spine2
			{
				OFFSET 0.000000 9.220787 -1.370637
				CHANNELS 3 Xrotation Yrotation Zrotation
				JOINT mixamorig:Neck
				{
					OFFSET 0.000000 16.740372 -2.049022
					CHANNELS 6 Xposition Yposition Zposition Xrotation Yrotation Zrotation
					JOINT mixamorig:Head
					{
						OFFSET 0.000000 9.617859 1.684976
						CHANNELS 6 Xposition Yposition Zposition Xrotation Yrotation Zrotation
						JOINT mixamorig:HeadTop_End
						{
							OFFSET 0.000000 22.037384 7.501072
							CHANNELS 6 Xposition Yposition Zposition Xrotation Yrotation Zrotation
							End Site
							{
								OFFSET 0.000000 23.106567 -2.828246
							}
						}
					}
				}
				JOINT mixamorig:RightShoulder
				{
					OFFSET -4.570000 11.014877 -2.160840
					CHANNELS 6 Xposition Yposition Zposition Xrotation Yrotation Zrotation
					JOINT mixamorig:RightArm
					{
						OFFSET -10.592867 -0.524796 -2.232105
						CHANNELS 3 Xrotation Yrotation Zrotation
						JOINT mixamorig:RightForeArm
						{
							OFFSET -27.841497 0.000000 -0.000002
							CHANNELS 3 Xrotation Yrotation Zrotation
							JOINT mixamorig:RightHand
							{
								OFFSET -28.328812 0.000000 -0.000001
								CHANNELS 3 Xrotation Yrotation Zrotation
								JOINT mixamorig:RightHandThumb1
								{
									OFFSET -2.464798 -1.573990 2.681911
									CHANNELS 6 Xposition Yposition Zposition Xrotation Yrotation Zrotation
									JOINT mixamorig:RightHandThumb2
									{
										OFFSET -3.244781 -1.873383 1.873376
										CHANNELS 3 Xrotation Yrotation Zrotation
										JOINT mixamorig:RightHandThumb3
										{
											OFFSET -2.646263 -1.527817 1.527818
											CHANNELS 6 Xposition Yposition Zposition Xrotation Yrotation Zrotation
											JOINT mixamorig:RightHandThumb4
											{
												OFFSET -1.994591 -1.151581 1.151575
												CHANNELS 6 Xposition Yposition Zposition Xrotation Yrotation Zrotation
												End Site
												{
													OFFSET -1.860176 -1.142715 1.365483
												}
											}
										}
									}
								}
								JOINT mixamorig:RightHandIndex1
								{
									OFFSET -9.108299 -0.517883 2.259803
									CHANNELS 6 Xposition Yposition Zposition Xrotation Yrotation Zrotation
									JOINT mixamorig:RightHandIndex2
									{
										OFFSET -3.699997 0.000000 0.000000
										CHANNELS 3 Xrotation Yrotation Zrotation
										JOINT mixamorig:RightHandIndex3
										{
											OFFSET -2.850006 0.000000 0.000000
											CHANNELS 3 Xrotation Yrotation Zrotation
											JOINT mixamorig:RightHandIndex4
											{
												OFFSET -2.772194 0.000000 0.000000
												CHANNELS 3 Xrotation Yrotation Zrotation
												End Site
												{
													OFFSET -2.772202 0.000000 -0.000484
												}
											}
										}
									}
								}
								JOINT mixamorig:RightHandMiddle1
								{
									OFFSET -9.532501 0.000000 -0.000000
									CHANNELS 6 Xposition Yposition Zposition Xrotation Yrotation Zrotation
									JOINT mixamorig:RightHandMiddle2
									{
										OFFSET -3.699997 0.000000 0.000000
										CHANNELS 3 Xrotation Yrotation Zrotation
										JOINT mixamorig:RightHandMiddle3
										{
											OFFSET -2.949997 0.000000 0.000000
											CHANNELS 3 Xrotation Yrotation Zrotation
											JOINT mixamorig:RightHandMiddle4
											{
												OFFSET -2.946594 0.000000 0.000000
												CHANNELS 3 Xrotation Yrotation Zrotation
												End Site
												{
													OFFSET -2.946602 0.000000 -0.000982
												}
											}
										}
									}
								}
								JOINT mixamorig:RightHandRing1
								{
									OFFSET -9.103600 -0.043106 -1.865100
									CHANNELS 6 Xposition Yposition Zposition Xrotation Yrotation Zrotation
									JOINT mixamorig:RightHandRing2
									{
										OFFSET -3.379303 0.000000 0.000000
										CHANNELS 3 Xrotation Yrotation Zrotation
										JOINT mixamorig:RightHandRing3
										{
											OFFSET -2.889694 0.000000 0.000000
											CHANNELS 3 Xrotation Yrotation Zrotation
											JOINT mixamorig:RightHandRing4
											{
												OFFSET -2.638802 0.000000 0.000000
												CHANNELS 3 Xrotation Yrotation Zrotation
												End Site
												{
													OFFSET -2.638802 0.000000 0.004218
												}
											}
										}
									}
								}
								JOINT mixamorig:RightHandPinky1
								{
									OFFSET -8.076698 -0.486725 -3.806299
									CHANNELS 6 Xposition Yposition Zposition Xrotation Yrotation Zrotation
									JOINT mixamorig:RightHandPinky2
									{
										OFFSET -3.600006 0.000000 0.000000
										CHANNELS 3 Xrotation Yrotation Zrotation
										JOINT mixamorig:RightHandPinky3
										{
											OFFSET -2.099998 0.000000 0.000000
											CHANNELS 3 Xrotation Yrotation Zrotation
											JOINT mixamorig:RightHandPinky4
											{
												OFFSET -2.115791 0.000000 0.000000
												CHANNELS 3 Xrotation Yrotation Zrotation
												End Site
												{
													OFFSET -2.115799 0.000000 0.000174
												}
											}
										}
									}
								}
							}
						}
					}
				}
				JOINT mixamorig:LeftShoulder
				{
					OFFSET 4.570400 11.014679 -2.160816
					CHANNELS 6 Xposition Yposition Zposition Xrotation Yrotation Zrotation
					JOINT mixamorig:LeftArm
					{
						OFFSET 10.592373 -0.524597 -2.232116
						CHANNELS 3 Xrotation Yrotation Zrotation
						JOINT mixamorig:LeftForeArm
						{
							OFFSET 27.841488 0.000000 0.000001
							CHANNELS 3 Xrotation Yrotation Zrotation
							JOINT mixamorig:LeftHand
							{
								OFFSET 28.328808 0.000000 -0.000000
								CHANNELS 3 Xrotation Yrotation Zrotation
								JOINT mixamorig:LeftHandThumb1
								{
									OFFSET 2.466103 -1.576202 2.681698
									CHANNELS 6 Xposition Yposition Zposition Xrotation Yrotation Zrotation
									JOINT mixamorig:LeftHandThumb2
									{
										OFFSET 3.243317 -1.872528 1.872530
										CHANNELS 3 Xrotation Yrotation Zrotation
										JOINT mixamorig:LeftHandThumb3
										{
											OFFSET 2.647881 -1.528763 1.528754
											CHANNELS 6 Xposition Yposition Zposition Xrotation Yrotation Zrotation
											JOINT mixamorig:LeftHandThumb4
											{
												OFFSET 1.998924 -1.154083 1.154080
												CHANNELS 6 Xposition Yposition Zposition Xrotation Yrotation Zrotation
												End Site
												{
													OFFSET 1.884041 -1.149155 1.337651
												}
											}
										}
									}
								}
								JOINT mixamorig:LeftHandIndex1
								{
									OFFSET 9.109299 -0.518005 2.259900
									CHANNELS 6 Xposition Yposition Zposition Xrotation Yrotation Zrotation
									JOINT mixamorig:LeftHandIndex2
									{
										OFFSET 3.699997 0.000000 0.000000
										CHANNELS 3 Xrotation Yrotation Zrotation
										JOINT mixamorig:LeftHandIndex3
										{
											OFFSET 2.850006 0.000000 0.000000
											CHANNELS 3 Xrotation Yrotation Zrotation
											JOINT mixamorig:LeftHandIndex4
											{
												OFFSET 2.774895 0.000000 0.000000
												CHANNELS 3 Xrotation Yrotation Zrotation
												End Site
												{
													OFFSET 2.774902 0.000000 -0.000072
												}
											}
										}
									}
								}
								JOINT mixamorig:LeftHandMiddle1
								{
									OFFSET 9.533401 0.000000 0.000000
									CHANNELS 6 Xposition Yposition Zposition Xrotation Yrotation Zrotation
									JOINT mixamorig:LeftHandMiddle2
									{
										OFFSET 3.699997 0.000000 0.000000
										CHANNELS 3 Xrotation Yrotation Zrotation
										JOINT mixamorig:LeftHandMiddle3
										{
											OFFSET 2.949997 0.000000 0.000000
											CHANNELS 3 Xrotation Yrotation Zrotation
											JOINT mixamorig:LeftHandMiddle4
											{
												OFFSET 2.952896 0.000000 0.000000
												CHANNELS 3 Xrotation Yrotation Zrotation
												End Site
												{
													OFFSET 2.952904 0.000000 0.000165
												}
											}
										}
									}
								}
								JOINT mixamorig:LeftHandRing1
								{
									OFFSET 9.104500 -0.042999 -1.865101
									CHANNELS 6 Xposition Yposition Zposition Xrotation Yrotation Zrotation
									JOINT mixamorig:LeftHandRing2
									{
										OFFSET 3.149994 0.000000 0.000000
										CHANNELS 3 Xrotation Yrotation Zrotation
										JOINT mixamorig:LeftHandRing3
										{
											OFFSET 2.950005 0.000000 0.000000
											CHANNELS 3 Xrotation Yrotation Zrotation
											JOINT mixamorig:LeftHandRing4
											{
												OFFSET 2.644302 0.000000 0.000000
												CHANNELS 3 Xrotation Yrotation Zrotation
												End Site
												{
													OFFSET 2.644302 0.000000 0.000083
												}
											}
										}
									}
								}
								JOINT mixamorig:LeftHandPinky1
								{
									OFFSET 8.077805 -0.486893 -3.806302
									CHANNELS 6 Xposition Yposition Zposition Xrotation Yrotation Zrotation
									JOINT mixamorig:LeftHandPinky2
									{
										OFFSET 3.600006 0.000000 0.000000
										CHANNELS 3 Xrotation Yrotation Zrotation
										JOINT mixamorig:LeftHandPinky3
										{
											OFFSET 2.099998 0.000000 0.000000
											CHANNELS 3 Xrotation Yrotation Zrotation
											JOINT mixamorig:LeftHandPinky4
											{
												OFFSET 2.125496 0.000000 0.000000
												CHANNELS 3 Xrotation Yrotation Zrotation
												End Site
												{
													OFFSET 2.125504 0.000000 -0.001254
												}
											}
										}
									}
								}
							}
						}
					}
				}
			}
		}
	}
	JOINT mixamorig:RightUpLeg
	{
		OFFSET -8.207800 -6.751701 -1.599544
		CHANNELS 6 Xposition Yposition Zposition Xrotation Yrotation Zrotation
		JOINT mixamorig:RightLeg
		{
			OFFSET 0.000004 -44.370152 0.345934
			CHANNELS 3 Xrotation Yrotation Zrotation
			JOINT mixamorig:RightFoot
			{
				OFFSET 0.000004 -44.423664 -3.043535
				CHANNELS 3 Xrotation Yrotation Zrotation
				JOINT mixamorig:RightToeBase
				{
					OFFSET 0.000001 -8.728691 10.710592
					CHANNELS 3 Xrotation Yrotation Zrotation
					JOINT mixamorig:RightToe_End
					{
						OFFSET 0.000000 -0.000665 9.278101
						CHANNELS 3 Xrotation Yrotation Zrotation
						End Site
						{
							OFFSET 0.000000 -0.000665 9.278103
						}
					}
				}
			}
		}
	}
	JOINT mixamorig:LeftUpLeg
	{
		OFFSET 8.207800 -6.751701 -1.599544
		CHANNELS 6 Xposition Yposition Zposition Xrotation Yrotation Zrotation
		JOINT mixamorig:LeftLeg
		{
			OFFSET 0.000004 -44.370037 0.346940
			CHANNELS 3 Xrotation Yrotation Zrotation
			JOINT mixamorig:LeftFoot
			{
				OFFSET 0.000004 -44.423611 -3.044388
				CHANNELS 3 Xrotation Yrotation Zrotation
				JOINT mixamorig:LeftToeBase
				{
					OFFSET 0.000001 -8.728690 10.710592
					CHANNELS 3 Xrotation Yrotation Zrotation
					JOINT mixamorig:LeftToe_End
					{
						OFFSET 0.000000 -0.000680 9.278101
						CHANNELS 3 Xrotation Yrotation Zrotation
						End Site
						{
							OFFSET 0.000000 -0.000680 9.278101
						}
					}
				}
			}
		}
	}
}
MOTION
Frames: 4
Frame Time: 0.033333
-3.095818 95.790680 -0.926646 -0.589994 -34.861648 -7.034924 0.000001 10.181540 0.131524 3.866094 -7.904902 -1.547457 -0.030398 -2.619399 5.158824 -0.042197 -2.171823 5.243094 0.000000 16.740387 -2.049020 -1.488565 -1.726963 -1.927070 -0.000000 9.617853 1.684977 -16.894353 -17.856847 1.415542 -0.000001 22.037384 7.501079 -0.000001 -0.000001 0.000001 -4.570002 11.014876 -2.160840 2.957394 3.380159 10.556061 -10.506514 -20.238962 52.971990 0.000242 104.371970 -0.000201 22.611913 5.817466 -12.409930 -2.464800 -1.573991 2.681917 32.156155 5.020683 -21.891045 1.284021 -32.757632 3.089006 -2.646264 -1.527827 1.527811 2.008732 -8.430476 1.114707 -1.994578 -1.151587 1.151564 0.000002 0.000000 -0.000002 -9.108303 -0.517883 2.259804 5.187531 -9.422699 79.181843 5.966595 -6.554360 91.769711 4.029949 -5.708574 84.790207 0.000003 0.000001 0.000002 -9.532498 0.000001 0.000004 5.997150 -11.334722 79.363513 6.292083 -6.614534 96.602125 4.610970 -5.719310 78.805753 -0.000004 0.000001 -0.000001 -9.103603 -0.043107 -1.865099 8.389144 -11.425559 86.869262 7.195089 -5.294376 99.697669 3.125648 -4.722456 76.777678 -0.000001 0.000002 0.000004 -8.076718 -0.486728 -3.806303 11.026548 -18.220933 97.419357 6.743063 -5.977419 104.986940 2.199984 -5.907723 81.085745 0.000000 0.000002 0.000000 4.570390 11.014704 -2.160816 -7.306856 -22.789469 -34.801245 20.505855 4.434186 -35.720496 0.000027 -102.955915 0.000025 -30.810823 -6.197710 -6.395939 2.466105 -1.576193 2.681705 30.968358 -5.047902 17.606512 1.284017 32.757611 -3.089006 2.647884 -1.528760 1.528756 2.117156 9.311157 -0.358640 1.998917 -1.154084 1.154093 0.000001 0.000000 -0.000000 9.109299 -0.518012 2.259916 4.081449 9.220225 -69.195301 4.970689 6.499292 -81.837216 3.713533 5.417070 -71.266112 0.000000 -0.000000 0.000000 9.533410 -0.000008 0.000015 4.717741 11.259558 -64.153119 4.796172 6.561691 -81.521122 3.012181 5.142472 -60.084259 -0.000001 0.000000 -0.000002 9.104500 -0.042994 -1.865091 7.096913 11.970290 -71.671361 5.716441 5.496119 -84.665638 3.655143 4.737121 -63.406927 0.000000 0.000000 0.000001 8.077791 -0.486907 -3.806287 9.370713 18.202123 -81.980206 5.235964 6.044844 -89.900050 3.612646 5.838263 -64.675772 -0.000001 0.000000 -0.000002 -8.207801 -6.751709 -1.599539 -23.472835 -5.425856 16.899309 39.254576 -9.452122 -10.184668 -16.565681 29.282302 1.573135 -1.822625 0.000010 -0.000002 -0.000000 -0.000000 0.000000 8.207801 -6.751702 -1.599544 -30.200843 11.826117 23.597940 46.757125 9.012597 -0.356299 -13.385701 17.996191 -11.082137 0.143536 0.000001 0.000004 -0.000000 0.000001 0.000000 
-3.336459 96.755257 -0.438940 -0.422942 -33.780480 -6.701736 -0.000001 10.181548 0.131525 2.649566 -8.001776 -2.003879 -0.410237 -2.622125 5.124108 -0.420046 -2.193856 5.209144 -0.000000 16.740366 -2.049021 -0.930729 -1.824270 -1.881966 -0.000001 9.617819 1.684969 -14.412669 -18.982492 1.572378 -0.000004 22.037338 7.501078 0.000002 0.000002 0.000001 -4.570002 11.014874 -2.160840 3.299316 3.291861 8.115472 -7.861710 -21.271842 55.674101 0.000248 107.704570 -0.000179 25.495160 -0.176352 -10.543808 -2.464803 -1.574003 2.681919 32.156640 5.018377 -21.890399 1.284022 -32.757632 3.089012 -2.646273 -1.527814 1.527820 2.008727 -8.430473 1.114704 -1.994582 -1.151581 1.151563 -0.000000 0.000001 -0.000000 -9.108312 -0.517879 2.259815 5.184219 -9.423882 79.181598 5.966583 -6.554367 91.769677 4.029952 -5.708577 84.790187 -0.000000 0.000003 0.000002 -9.532511 0.000010 -0.000002 5.999650 -11.335210 79.363800 6.292090 -6.614520 96.602057 4.610961 -5.719302 78.805719 -0.000005 0.000002 -0.000001 -9.103605 -0.043108 -1.865091 8.391232 -11.425780 86.869467 7.195089 -5.294380 99.697683 3.125638 -4.722438 76.777672 -0.000001 0.000001 -0.000001 -8.076706 -0.486701 -3.806295 11.026533 -18.220926 97.419343 6.743060 -5.977417 104.986933 2.199979 -5.907721 81.085772 -0.000004 -0.000002 0.000002 4.570405 11.014692 -2.160814 -6.265219 -21.714346 -32.495571 21.102407 3.270512 -39.364364 0.000011 -107.505586 0.000001 -27.173168 4.296806 -6.089927 2.466107 -1.576200 2.681702 30.968262 -5.048235 17.606291 1.284015 32.757615 -3.089003 2.647880 -1.528772 1.528741 2.117155 9.311160 -0.358639 1.998918 -1.154083 1.154092 -0.000001 0.000000 -0.000000 9.109274 -0.518001 2.259902 4.081538 9.220163 -69.195308 4.970675 6.499272 -81.837209 3.713520 5.417083 -71.266125 -0.000001 0.000000 -0.000001 9.533417 0.000006 0.000003 4.717664 11.259534 -64.153139 4.796003 6.561658 -81.519319 3.012171 5.142459 -60.084273 0.000001 -0.000001 0.000002 9.104506 -0.042997 -1.865105 7.096736 11.970206 -71.671388 5.716184 5.496140 -84.663166 3.655155 4.737136 -63.406934 0.000000 -0.000001 0.000003 8.077814 -0.486884 -3.806304 9.370500 18.202109 -81.980192 5.235955 6.044874 -89.900050 3.612646 5.838278 -64.675778 0.000000 0.000000 0.000001 -8.207800 -6.751702 -1.599542 -21.599015 -5.715177 16.186423 36.260559 -9.151591 -9.965218 -15.485429 29.329150 1.414928 -2.000051 -0.000001 0.000000 -0.000000 -0.000000 0.000000 8.207798 -6.751688 -1.599544 -28.928085 12.482657 22.970097 44.018162 8.986297 -0.392050 -12.124411 17.122350 -10.274959 0.001105 0.001055 -0.324824 -0.000000 -0.000000 0.000000 
-3.645520 98.278015 0.236254 0.073824 -32.007697 -6.245702 0.000000 10.181559 0.131525 0.801570 -8.032226 -2.312286 -0.505129 -2.624390 5.075120 -0.514318 -2.208984 5.152345 0.000000 16.740379 -2.049023 -0.519587 -1.954930 -1.871343 0.000000 9.617858 1.684979 -11.072210 -20.357331 1.582040 -0.000000 22.037369 7.501072 0.000000 -0.000001 -0.000001 -4.570000 11.014874 -2.160841 4.179873 2.320156 4.348405 -4.825483 -20.187546 59.324086 0.000174 109.627876 -0.000124 25.715358 -2.456384 -8.111759 -2.464792 -1.573995 2.681905 32.157244 5.016003 -21.889686 1.284025 -32.757625 3.089013 -2.646274 -1.527822 1.527814 2.008730 -8.430479 1.114707 -1.994586 -1.151582 1.151565 0.000003 0.000005 0.000001 -9.108311 -0.517900 2.259792 5.180867 -9.425102 79.181359 5.966590 -6.554386 91.769725 4.029954 -5.708581 84.790180 -0.000001 -0.000001 0.000001 -9.532502 0.000001 -0.000004 6.002222 -11.335704 79.364087 6.292061 -6.614523 96.602022 4.610971 -5.719326 78.805739 -0.000001 0.000003 -0.000001 -9.103599 -0.043107 -1.865110 8.393384 -11.426033 86.869679 7.195110 -5.294375 99.697703 3.125647 -4.722443 76.777706 0.000000 -0.000000 0.000003 -8.076726 -0.486718 -3.806313 11.026561 -18.220894 97.419343 6.743044 -5.977417 104.986940 2.199976 -5.907727 81.085752 -0.000000 0.000000 -0.000002 4.570395 11.014699 -2.160816 -4.755275 -20.244271 -29.107541 22.123418 -0.281493 -42.622771 -0.000001 -110.471411 -0.000008 -28.371194 8.463607 -6.480306 2.466107 -1.576193 2.681669 30.968166 -5.048527 17.606109 1.284020 32.757618 -3.089007 2.647882 -1.528772 1.528758 2.117157 9.311160 -0.358642 1.998925 -1.154065 1.154083 0.000003 0.000000 -0.000000 9.109305 -0.518022 2.259883 4.081599 9.220125 -69.195315 4.970702 6.499269 -81.837209 3.713519 5.417070 -71.266125 -0.000000 -0.000000 -0.000004 9.533402 -0.000001 -0.000017 4.717607 11.259491 -64.153139 4.795820 6.561631 -81.517522 3.012186 5.142460 -60.084259 -0.000000 -0.000000 0.000001 9.104503 -0.043000 -1.865114 7.096566 11.970131 -71.671381 5.715945 5.496146 -84.660734 3.655149 4.737137 -63.406961 -0.000000 0.000000 -0.000004 8.077803 -0.486889 -3.806312 9.370354 18.202075 -81.980145 5.235981 6.044861 -89.900043 3.612658 5.838262 -64.675772 0.000001 0.000000 0.000004 -8.207799 -6.751703 -1.599542 -18.850777 -5.798898 14.796835 31.231562 -9.031194 -8.362733 -13.221370 29.637874 0.593861 -2.754407 -0.000000 -0.000002 -0.000000 0.000000 0.000000 8.207802 -6.751707 -1.599547 -27.677234 13.135564 22.431960 40.312043 9.540909 -0.446753 -8.074102 14.595368 -10.420809 -2.888760 -0.000004 -0.000000 0.000000 0.000000 0.000000 
-3.799566 99.765968 0.842769 1.076529 -29.753711 -5.654495 -0.000000 10.181561 0.131524 -1.307437 -7.940255 -2.186355 -0.148873 -2.639756 4.708981 -0.163883 -2.228132 4.768296 0.000000 16.740370 -2.049023 -0.508921 -2.162778 -1.733888 0.000001 9.617845 1.684980 -8.249277 -22.091364 1.702547 0.000001 22.037399 7.501067 0.000000 -0.000000 -0.000000 -4.570000 11.014905 -2.160842 5.265467 0.576194 1.904010 -2.932805 -17.363106 61.249660 0.000261 110.540389 -0.000199 22.434301 0.276190 -5.139305 -2.464793 -1.573975 2.681918 32.157849 5.013592 -21.888960 1.284019 -32.757628 3.089013 -2.646273 -1.527828 1.527816 2.008725 -8.430475 1.114704 -1.994586 -1.151587 1.151570 0.000001 -0.000000 -0.000002 -9.108309 -0.517877 2.259809 5.177465 -9.426393 79.181085 5.966590 -6.554375 91.769698 4.029949 -5.708576 84.790207 -0.000002 0.000001 0.000001 -9.532486 -0.000001 0.000002 6.004849 -11.336219 79.364360 6.292063 -6.614519 96.601954 4.610953 -5.719288 78.805719 0.000001 0.000001 0.000001 -9.103586 -0.043119 -1.865101 8.395538 -11.426245 86.869850 7.195101 -5.294381 99.697724 3.125646 -4.722444 76.777678 -0.000005 0.000002 0.000003 -8.076715 -0.486727 -3.806302 11.026571 -18.220889 97.419364 6.743050 -5.977412 104.986933 2.199987 -5.907723 81.085779 -0.000002 0.000004 0.000001 4.570401 11.014700 -2.160818 -3.224056 -17.950162 -25.383454 22.757635 -5.546102 -44.145507 0.000007 -110.982111 -0.000001 -32.359568 6.421651 -10.146625 2.466098 -1.576200 2.681707 30.968095 -5.048755 17.605924 1.284017 32.757618 -3.089006 2.647884 -1.528763 1.528767 2.117155 9.311159 -0.358637 1.998925 -1.154082 1.154087 0.000001 0.000000 -0.000000 9.109305 -0.517996 2.259901 4.081643 9.220102 -69.195342 4.970693 6.499290 -81.837196 3.713534 5.417080 -71.266119 -0.000000 -0.000000 0.000001 9.533400 0.000023 0.000005 4.717557 11.259457 -64.153153 4.795652 6.561595 -81.515760 3.012192 5.142456 -60.084259 -0.000000 0.000000 0.000001 9.104500 -0.043005 -1.865096 7.096403 11.970080 -71.671422 5.715719 5.496138 -84.658344 3.655156 4.737121 -63.406934 -0.000000 0.000000 0.000002 8.077793 -0.486894 -3.806300 9.370258 18.202067 -81.980097 5.235983 6.044872 -89.900043 3.612667 5.838260 -64.675765 -0.000000 -0.000000 0.000000 -8.207800 -6.751707 -1.599540 -16.325619 -5.874201 13.042551 25.635153 -8.893697 -5.725652 -10.223849 29.561615 -0.853804 -3.416320 -0.000005 -0.000002 0.000000 0.000001 0.000000 8.207797 -6.751695 -1.599541 -27.360725 13.518572 22.100520 37.036940 10.021353 -0.617410 -3.391352 10.688072 -9.652720 -6.710406 0.000006 0.000001 0.000000 0.000000 0.000000 
